<svg xmlns="http://www.w3.org/2000/svg" xmlns:xlink="http://www.w3.org/1999/xlink" width="1920" height="280" viewBox="0 0 1920 280">
  <defs>
    <clipPath id="clip-path">
      <rect id="사각형_922" data-name="사각형 922" width="63.459" height="48.348" fill="none"/>
    </clipPath>
    <clipPath id="clip-공용푸터">
      <rect width="1920" height="280"/>
    </clipPath>
  </defs>
  <g id="공용푸터" clip-path="url(#clip-공용푸터)">
    <rect width="1920" height="280" fill="#fff"/>
    <g id="그룹_641" data-name="그룹 641" transform="translate(0 -6641)">
      <g id="Footer" transform="translate(0 1)">
        <rect id="사각형_541" data-name="사각형 541" width="1920" height="280" transform="translate(0 6640)" fill="#353a47"/>
        <path id="패스_689" data-name="패스 689" d="M-236.958-5.081c2.29-.989,4.928-2,4.928-5.068,0-1.715-1.166-4.616-5.537-4.616-4.9,0-5.773,3.587-5.927,4.969h2.649a2.759,2.759,0,0,1,3.066-2.7c2.106,0,3.213.874,3.213,2.415,0,1.97-1.63,2.536-3.371,3.192a9.073,9.073,0,0,0-5.08,3.6A6.6,6.6,0,0,0-243.782,0h11.544V-2.337h-8.333c0-1.092,1.944-2.023,3.613-2.744Zm6.2-2.37c0,4.666,2.377,7.452,6.36,7.452,3.922,0,6.359-2.855,6.359-7.452S-220.477-14.9-224.4-14.9s-6.36,2.855-6.36,7.452Zm10.226,0c0,3.3-1.265,4.911-3.867,4.911-2.638,0-3.867-1.56-3.867-4.911s1.228-4.912,3.867-4.912c2.6,0,3.867,1.607,3.867,4.912Zm9.93,2.37c2.29-.989,4.928-2,4.928-5.068,0-1.715-1.166-4.616-5.537-4.616-4.9,0-5.773,3.587-5.927,4.969h2.649a2.759,2.759,0,0,1,3.066-2.7c2.106,0,3.213.874,3.213,2.415,0,1.97-1.63,2.536-3.371,3.192a9.073,9.073,0,0,0-5.08,3.6A6.6,6.6,0,0,0-217.426,0h11.544V-2.337h-8.333c0-1.092,1.944-2.023,3.613-2.744Zm6.2-2.37c0,4.666,2.377,7.452,6.36,7.452,3.922,0,6.359-2.855,6.359-7.452s-2.437-7.452-6.359-7.452-6.36,2.855-6.36,7.452Zm10.226,0c0,3.3-1.265,4.911-3.867,4.911-2.638,0-3.867-1.56-3.867-4.911s1.228-4.912,3.867-4.912c2.6,0,3.867,1.607,3.867,4.912ZM-180.35-15.3h-2.6V0h2.6V-6.517h9.4V0h2.6V-15.3h-2.6v6.517h-9.4Zm19.9,2.851c-3.315,0-6.856,1.635-6.856,6.223S-163.769,0-160.454,0c4.293,0,6.856-2.326,6.856-6.222C-153.6-10.81-157.14-12.445-160.454-12.445Zm0,10.127c-2.766,0-4.289-1.387-4.289-3.905s1.523-3.906,4.289-3.906c2.725,0,4.288,1.423,4.288,3.906C-156.166-3.777-157.769-2.318-160.454-2.318Zm10.86-8.144-.14.191h-.253V-12.2h-2.627V0h2.627V-5.865c0-1.04,0-4.206,4-4.206a3.8,3.8,0,0,1,2.8.938,3.81,3.81,0,0,1,.857,2.863l0,.171V0h2.6V-6.1c0-2.619-.543-6.1-5.232-6.1C-147.375-12.2-148.964-11.32-149.594-10.461Zm16.383-1.621c-5.121,0-5.674,4.267-5.674,6.1,0,1.432.408,6.1,5.664,6.1,2.153,0,4.238-.541,5.1-1.653l.141-.18h.24V-.289c0,2.823-1.441,4.442-3.954,4.442-2.8,0-3.617-1.285-3.858-2.064h-2.662c.156,1.553,1.2,4.2,6.538,4.2,5.884,0,6.564-4.061,6.564-7.115V-12.083h-2.629v1.929h-.28l-.14-.183C-129.058-11.511-131.127-12.083-133.212-12.083Zm5.2,6.1c0,1.85-.475,3.973-4.178,3.973-4.029,0-4.233-3.31-4.233-3.973,0-.933.306-3.974,4.239-3.974C-129.414-9.955-128.011-8.617-128.011-5.98Zm6.783-8.008v-2.237h-2.61v2.237Zm0,13.988V-12.12h-2.61V0Zm10.34-12.2-6.446,6.363v-10.14h-2.61V-.038h2.61V-2.316l3.084-3.036L-110.381,0h3.271l-5.227-7.231,5.049-4.966Zm15.6-3.1h-3.1L-92.864,0h4.415l5.52-15.3h-3.1L-90.458-2.3h-.4Zm15.79,1.308v-2.237H-82.1v2.237Zm0,13.988V-12.12H-82.1V0ZM-75.6-8.78c0-.266.139-1.386,2.874-1.386,2.066,0,3.243.738,3.4,1.489h2.7c-.18-2.393-2.231-3.607-6.1-3.607-3.735,0-5.629,1.2-5.628,3.551,0,4.66,9.36,2.957,9.36,5.155,0,1.5-2.368,1.5-3.26,1.5-1.692,0-3.4-.33-3.646-1.53h-2.75c0,2.2,2.118,3.609,6.491,3.609,4.41,0,5.9-1.411,5.9-3.427C-66.261-7.978-75.6-6.1-75.6-8.78Zm13.587,5.715a3.809,3.809,0,0,1-.856-2.863V-12.2h-2.605v6.1c0,2.618.543,6.1,5.233,6.1,2.42,0,3.957-.878,4.587-1.738l.141-.191h.3V0h2.628V-12.2h-2.628v5.659c0,1.04,0,4.413-4,4.413a3.8,3.8,0,0,1-2.8-.938Zm16.272-9.141c-5.121,0-5.674,4.267-5.674,6.1,0,1.432.408,6.1,5.664,6.1,2.153,0,4.239-.541,5.1-1.653l.14-.18h.189V0h2.628V-12.206h-2.628v1.929h-.229l-.14-.183C-41.586-11.634-43.655-12.206-45.74-12.206Zm5.2,6.274c0,2.2-1.183,3.8-4.178,3.8-4.029,0-4.233-2.75-4.233-3.973s.272-3.973,4.206-3.973A3.841,3.841,0,0,1-40.539-5.931ZM-33.844,0V-15.915h-2.61V0Zm16.492-2.673c-3.277,0-5.157-1.862-5.157-5.108s1.88-5.108,5.157-5.108c2.571,0,4.03.8,4.678,2.576h2.8c-.48-3.069-3.536-5.247-7.48-5.247-4.708,0-7.751,3.055-7.751,7.781,0,4.8,2.97,7.78,7.751,7.78,3.995,0,6.928-2.088,7.471-5.247h-2.8c-.629,1.754-2.124,2.574-4.67,2.574Zm15.166-9.772c-3.315,0-6.856,1.635-6.856,6.223S-5.5,0-2.186,0C2.107,0,4.67-2.326,4.67-6.222c0-4.588-3.541-6.223-6.856-6.223Zm0,10.127c-2.766,0-4.289-1.387-4.289-3.905s1.523-3.906,4.289-3.906C.539-10.129,2.1-8.706,2.1-6.223,2.1-3.777.5-2.318-2.186-2.318ZM22.479-12.2c-3.247,0-4.341,1.1-5.058,2.07l-.234-.335A4.557,4.557,0,0,0,13.126-12.2c-2.391,0-3.952.835-4.614,1.738l-.14.19h-.24V-12.1H5.522V0h2.61v-5.04c0-1.366,0-5.031,3.744-5.031a3.323,3.323,0,0,1,3.2,1.586,4.846,4.846,0,0,1,.455,2.348V0h2.6V-6.345a3.818,3.818,0,0,1,3.757-3.727,3.323,3.323,0,0,1,3.2,1.586,4.846,4.846,0,0,1,.455,2.348V0h2.6V-6.1C28.154-8.719,27.6-12.2,22.479-12.2Zm23.628,0c-3.247,0-4.341,1.1-5.058,2.07l-.234-.335A4.557,4.557,0,0,0,36.754-12.2c-2.391,0-3.952.835-4.614,1.738l-.14.19h-.24V-12.1H29.15V0h2.61v-5.04c0-1.366,0-5.031,3.744-5.031a3.323,3.323,0,0,1,3.2,1.586,4.846,4.846,0,0,1,.455,2.348V0h2.6V-6.345a3.818,3.818,0,0,1,3.757-3.727,3.323,3.323,0,0,1,3.2,1.586,4.846,4.846,0,0,1,.455,2.348V0h2.6V-6.1C51.782-8.719,51.231-12.2,46.107-12.2ZM56.128-3.065a3.809,3.809,0,0,1-.856-2.863V-12.2H52.668v6.1c0,2.618.543,6.1,5.233,6.1,2.42,0,3.957-.878,4.587-1.738l.141-.191h.3V0h2.628V-12.2H62.933v5.659c0,1.04,0,4.413-4,4.413a3.8,3.8,0,0,1-2.8-.938Zm13.728-7.4-.14.191h-.253V-12.2H66.836V0h2.627V-5.865c0-1.04,0-4.206,4-4.206a3.8,3.8,0,0,1,2.8.938,3.81,3.81,0,0,1,.857,2.863l0,.171V0h2.6V-6.1c0-2.619-.543-6.1-5.232-6.1C72.075-12.2,70.486-11.32,69.856-10.461Zm13.759-3.527v-2.237H81v2.237ZM83.614,0V-12.12H81V0ZM94.8-8.23h2.744c-.5-2.478-2.853-3.994-6.287-3.994-3.972,0-6.539,2.4-6.539,6.112S87.289,0,91.261,0c3.458,0,5.817-1.516,6.291-3.993H94.8c-.612,1.034-1.6,1.529-3.535,1.529-2.4,0-3.856-1.095-3.856-3.648C87.4-8.593,88.69-9.8,91.261-9.8,93.2-9.8,94.184-9.336,94.8-8.23Zm9.233-3.976c-5.121,0-5.674,4.267-5.674,6.1,0,1.432.408,6.1,5.664,6.1,2.153,0,4.239-.541,5.1-1.653l.14-.18h.189V0h2.628V-12.206H109.46v1.929h-.229l-.14-.183C108.19-11.634,106.121-12.206,104.036-12.206Zm5.2,6.274c0,2.2-1.183,3.8-4.178,3.8-4.029,0-4.233-2.75-4.233-3.973s.272-3.973,4.206-3.973A3.841,3.841,0,0,1,109.237-5.931Zm8.357,3.246a2.162,2.162,0,0,1-.492-1.6v-.468h0V-10.1h4.468v-2.065H117.1v-3.792h-2.423v3.792h-1.752V-10.1h1.752v5.73c0,2.39.233,4.369,3.1,4.369a29.969,29.969,0,0,0,3.8-.162V-2.548s-3.366.46-3.976-.137Zm7.578-11.3v-2.237h-2.61v2.237Zm0,13.988V-12.12h-2.61V0Zm7.92-12.445c-3.315,0-6.856,1.635-6.856,6.223S129.777,0,133.092,0c4.293,0,6.856-2.326,6.856-6.222C139.948-10.81,136.406-12.445,133.092-12.445Zm0,10.127c-2.766,0-4.289-1.387-4.289-3.905s1.523-3.906,4.289-3.906c2.725,0,4.288,1.423,4.288,3.906C137.38-3.777,135.777-2.318,133.092-2.318Zm10.86-8.144-.14.191h-.253V-12.2h-2.627V0h2.627V-5.865c0-1.04,0-4.206,4-4.206a3.8,3.8,0,0,1,2.8.938,3.81,3.81,0,0,1,.857,2.863l0,.171V0h2.6V-6.1c0-2.619-.543-6.1-5.232-6.1C146.171-12.2,144.582-11.32,143.952-10.461ZM162.558-15.3V0h6.518c6.556,0,7.535-4.786,7.535-7.639s-.979-7.657-7.534-7.657Zm11.326,7.657c0,2.468-1.259,5.348-4.808,5.348H165.16V-13.006h3.918C172.621-13.006,173.884-10.234,173.884-7.639Zm5.98,2.1h10.714a6.241,6.241,0,0,0-2.158-5.473l-.243-.167A7.173,7.173,0,0,0,184-12.331c-4.25,0-6.59,2.19-6.59,6.166C177.408-2.132,180.179,0,184,0c2.572,0,5.7-.647,6.4-3.634h-2.6c-.547.965-1.824,1.453-3.8,1.453C180.992-2.182,179.864-4.118,179.864-5.535ZM184-10.151c2.589,0,4.1,1.525,4.1,2.864H179.9C179.9-8.557,181.41-10.151,184-10.151ZM194.187-8.78c0-.266.139-1.386,2.874-1.386,2.066,0,3.243.738,3.4,1.489h2.7c-.18-2.393-2.231-3.607-6.1-3.607-3.735,0-5.629,1.2-5.628,3.551,0,4.66,9.36,2.957,9.36,5.155,0,1.5-2.368,1.5-3.26,1.5-1.692,0-3.4-.33-3.646-1.53h-2.75c0,2.2,2.118,3.609,6.491,3.609,4.41,0,5.9-1.411,5.9-3.427C203.525-7.978,194.186-6.1,194.187-8.78Zm13-5.208v-2.237h-2.61v2.237Zm0,13.988V-12.12h-2.61V0Zm6.87-12.083c-5.121,0-5.674,4.267-5.674,6.1,0,1.432.408,6.1,5.664,6.1,2.153,0,4.238-.541,5.1-1.653l.141-.18h.24V-.289c0,2.823-1.441,4.442-3.954,4.442-2.8,0-3.617-1.285-3.858-2.064H209.06c.156,1.553,1.2,4.2,6.538,4.2,5.884,0,6.564-4.061,6.564-7.115V-12.083h-2.629v1.929h-.28l-.14-.183C218.212-11.511,216.143-12.083,214.058-12.083Zm5.2,6.1c0,1.85-.475,3.973-4.178,3.973-4.029,0-4.233-3.31-4.233-3.973,0-.933.306-3.974,4.239-3.974C217.856-9.955,219.259-8.617,219.259-5.98Zm7.193-4.481-.14.191h-.253V-12.2h-2.627V0h2.627V-5.865c0-1.04,0-4.206,4-4.206a3.8,3.8,0,0,1,2.8.938,3.81,3.81,0,0,1,.857,2.863l0,.171V0h2.6V-6.1c0-2.619-.543-6.1-5.232-6.1C228.671-12.2,227.082-11.32,226.452-10.461Zm-421.8,34.95c-.564,1.884-2.235,2.839-4.966,2.839-3.365,0-5.374-1.91-5.374-5.108s2.009-5.108,5.374-5.108c2.24,0,3.724.608,4.524,1.858h2.993c-.86-2.656-3.914-4.529-7.518-4.529-4.84,0-7.967,3.055-7.967,7.781s3.128,7.78,7.967,7.78c2.325,0,4.245-1.221,4.688-2.364l.114-.3h.357v2.528h2.6v-8.36h-7.407v2.385h4.79Zm7.176-4.99-.135.232h-.339V17.8h-2.63V30h2.63V24.576c0-2.083,1.023-4.308,3.9-4.308a10.3,10.3,0,0,1,1.979.193l.411-2.433a8.067,8.067,0,0,0-1.8-.226C-186.209,17.8-187.506,18.349-188.175,19.5Zm11.5-1.7c-5.121,0-5.674,4.267-5.674,6.1,0,1.432.408,6.1,5.664,6.1,2.153,0,4.239-.541,5.1-1.653l.14-.18h.189V30h2.628V17.794h-2.628v1.929h-.229l-.14-.183C-172.519,18.366-174.588,17.794-176.673,17.794Zm5.2,6.274c0,2.2-1.183,3.8-4.178,3.8-4.029,0-4.233-2.75-4.233-3.973s.272-3.973,4.206-3.973A3.841,3.841,0,0,1-171.472,24.069Zm9.561-6.274c-5.121,0-5.674,4.267-5.674,6.1,0,1.432.408,6.1,5.664,6.1,2.153,0,4.239-.541,5.1-1.653l.14-.18h.189V30h2.628V14.018h-2.628v5.706h-.229l-.14-.183C-157.757,18.366-159.826,17.794-161.911,17.794Zm5.2,6.274c0,2.2-1.183,3.8-4.178,3.8-4.029,0-4.233-2.75-4.233-3.973s.272-3.973,4.206-3.973A3.842,3.842,0,0,1-156.71,24.069Zm7.589,2.866a3.809,3.809,0,0,1-.856-2.863V17.8h-2.605v6.1c0,2.618.543,6.1,5.233,6.1,2.42,0,3.957-.878,4.587-1.738l.141-.191h.3V30h2.628V17.8h-2.628v5.659c0,1.04,0,4.413-4,4.413A3.8,3.8,0,0,1-149.121,26.935Zm16.272-9.141c-5.121,0-5.674,4.267-5.674,6.1,0,1.432.408,6.1,5.664,6.1,2.153,0,4.239-.541,5.1-1.653l.14-.18h.189V30h2.628V17.794h-2.628v1.929h-.229l-.14-.183C-128.695,18.366-130.764,17.794-132.849,17.794Zm5.2,6.274c0,2.2-1.183,3.8-4.178,3.8-4.029,0-4.233-2.75-4.233-3.973s.272-3.973,4.206-3.973A3.841,3.841,0,0,1-127.648,24.069Zm8.357,3.246a2.162,2.162,0,0,1-.492-1.6v-.468h0V19.9h4.468V17.835h-4.469V14.043h-2.423v3.792h-1.752V19.9h1.752v5.73c0,2.39.233,4.369,3.1,4.369a29.969,29.969,0,0,0,3.8-.162V27.452s-3.366.46-3.976-.137Zm7.578-11.3V13.775h-2.61v2.237Zm0,13.988V17.88h-2.61V30Zm7.92-12.445c-3.315,0-6.856,1.635-6.856,6.223S-107.108,30-103.793,30c4.293,0,6.856-2.326,6.856-6.222C-96.937,19.19-100.479,17.555-103.793,17.555Zm0,10.127c-2.766,0-4.289-1.387-4.289-3.905s1.524-3.906,4.289-3.906c2.725,0,4.288,1.423,4.288,3.906C-99.5,26.223-101.108,27.682-103.793,27.682Zm10.86-8.144-.14.191h-.253V17.8h-2.627V30h2.627V24.135c0-1.04,0-4.206,4-4.206a3.8,3.8,0,0,1,2.8.938,3.81,3.81,0,0,1,.857,2.863l0,.171V30h2.6V23.9c0-2.619-.543-6.1-5.232-6.1C-90.714,17.8-92.3,18.68-92.933,19.539Zm30.257,5.887c0,2.093-2.419,2.335-4.239,2.335-1.229,0-4.391,0-4.7-2.833h-2.712a4.812,4.812,0,0,0,.9,2.845C-72.3,29.25-70.067,30-66.8,30c5.075,0,6.962-1.617,6.962-4.577,0-5.77-11.437-3.447-11.437-6.417,0-.671.372-2.231,3.815-2.231,3.31,0,4.138,1.586,4.288,2.8h2.788c-.143-2.082-1.348-5.07-7.076-5.07-6.055,0-6.525,3.423-6.525,4.472C-73.99,24.545-62.676,21.931-62.676,25.426Zm11.765-7.631c-2,0-4,.57-4.862,1.739l-.14.191h-.253V14.018h-2.628V30h2.628V24.131c0-2.713,1.5-4.208,4.225-4.208,3.879,0,3.879,2.992,3.879,3.974V30h2.606V23.9C-45.457,19.848-47.293,17.794-50.912,17.794Zm13.361-.239c-3.315,0-6.856,1.635-6.856,6.223S-40.866,30-37.551,30c4.293,0,6.856-2.326,6.856-6.222,0-4.588-3.541-6.223-6.856-6.223Zm0,10.127c-2.766,0-4.289-1.387-4.289-3.905s1.523-3.906,4.289-3.906c2.725,0,4.288,1.423,4.288,3.906,0,2.446-1.6,3.905-4.288,3.905ZM-19.705,17.8H-22.07l-3.319,10.143L-28.778,17.8h-2.407l3.84,12.2h3.712l2.746-8.9,2.746,8.9h3.711l3.841-12.2H-13l-3.389,10.143Zm7.911,9.3a1.551,1.551,0,0,0-1.614,1.535,1.6,1.6,0,0,0,.42,1.154,1.458,1.458,0,0,0,.912.264,1.746,1.746,0,0,0,.473-.084l0,.129a3.481,3.481,0,0,1-.949,1.642c.07.111.132.21.247.415a3.364,3.364,0,0,0,2.12-3.045c0-1.22-.634-2.009-1.614-2.009Zm10.31-9.445H4.334V30H7.683V17.657H13.5V14.6H-1.485Zm24.02-.008c-2.212,0-3.544.725-4.343,1.814h-.157V14.1H14.685V30h3.349V24.044c0-1.672.642-3.516,3.532-3.516,3.206,0,3.206,2.335,3.206,3.3V30H28.1V23.824C28.1,22.024,27.756,17.649,22.535,17.649ZM42.062,24.6h.123a6.019,6.019,0,0,0-2.408-5.912v0A7.179,7.179,0,0,0,35.6,17.531c-4.17,0-6.635,2.2-6.635,6.234,0,4.107,2.4,6.235,6.635,6.235,4.054,0,6.2-1.646,6.54-4.3H38.9c-.308.81-1.3,1.366-3.3,1.366-2.166,0-3.153-.818-3.382-2.468h9.847ZM35.6,20.46c2.383,0,2.988,1.007,3.262,1.932H32.344C32.73,21.141,33.747,20.46,35.6,20.46ZM63.792,14.6v.015H62.756L59.687,26.937H59.38L56.313,14.615H55.5V14.6H50.567V30h3.349V18.537h.327L57.179,30h4.813l2.936-11.463h.327V30H68.6V14.6Zm19.1,10h.123a6.019,6.019,0,0,0-2.408-5.912v0a7.179,7.179,0,0,0-4.179-1.164c-4.17,0-6.635,2.2-6.635,6.234,0,4.107,2.4,6.235,6.635,6.235,4.054,0,6.2-1.646,6.54-4.3H79.727c-.308.81-1.3,1.366-3.3,1.366-2.166,0-3.153-.818-3.382-2.468h9.847ZM76.43,20.46c2.383,0,2.988,1.007,3.262,1.932H73.176C73.562,21.141,74.579,20.46,76.43,20.46Zm17.9-6.361v5.364h-.188c-.839-1.095-2.235-1.814-4.518-1.814-5.222,0-5.773,4.375-5.773,6.176,0,1.663.583,6.176,5.764,6.176,2.319,0,3.728-.65,4.563-1.723h.153V30h3.349V14.1ZM90.588,27.121c-3.181,0-3.539-2.409-3.539-3.3,0-.961.338-3.3,3.545-3.3,2.89,0,3.482,1.624,3.482,3.3C94.076,25.692,93.485,27.121,90.588,27.121ZM102.212,30V17.729H98.879V30Zm0-13.149V13.87H98.879v2.981Zm10.827.8v5.952c0,1.672-.435,3.515-3.324,3.515-3.2,0-3-2.335-3-3.295V17.655h-3.327v6.172c0,1.8.139,6.172,5.358,6.172,2.21,0,3.336-.725,4.134-1.812h.157V30h3.348V17.655Zm21.336,0c-3.087,0-4.076.725-4.874,1.812h-.157l0,.007a4.684,4.684,0,0,0-4.178-1.819,4.514,4.514,0,0,0-4.11,1.812h-.145V17.752h-3.333V30h3.333V24.048c0-1.672.191-3.514,3.079-3.514,3.037,0,3,2.334,3,3.295V30h3.328V23.993l.012.055c0-1.672.191-3.514,3.08-3.514,3.037,0,3,2.334,3,3.295V30h3.327V23.827c0-1.8-.14-6.172-5.359-6.172Zm20.6-3.055c-.913,0-2.738.009-3.555.013V14.6h-3.349V30h3.349V25.688h3.545c1.464,0,6.579.206,6.579-5.538,0-5.535-4.718-5.551-6.569-5.551Zm.113,8.2H151.42v-5.3h3.72c1.117,0,3.268-.007,3.268,2.65,0,2.783-2.43,2.655-3.319,2.655ZM165.858,30V14.161h-3.333V30Zm11.227-10.538c-.838-1.094-2.235-1.814-4.518-1.814-5.222,0-5.773,4.376-5.773,6.176,0,1.663.583,6.176,5.764,6.176,2.319,0,3.728-.65,4.563-1.723h.1V30h3.349V17.649h-3.349v1.814Zm-3.557,7.658c-3.181,0-3.539-2.409-3.539-3.3,0-.961.338-3.3,3.545-3.3,2.89,0,3.482,1.624,3.482,3.3C177.016,25.693,176.425,27.121,173.528,27.121Zm17.546-1.753c-.244.862-1.01,1.624-3.131,1.624-2.166,0-3.309-.978-3.309-3.176,0-2.1,1.143-3.176,3.309-3.176,2.046,0,2.872.7,3.14,1.624h3.277c-.274-2.928-2.882-4.633-6.417-4.633-3.637,0-6.586,2.185-6.586,6.185,0,4.075,2.948,6.184,6.586,6.184,3.535,0,6.165-1.656,6.417-4.632Zm17.088-.765h.123a6.019,6.019,0,0,0-2.408-5.912v0a7.179,7.179,0,0,0-4.179-1.164c-4.17,0-6.635,2.2-6.635,6.234,0,4.107,2.4,6.235,6.635,6.235,4.054,0,6.2-1.646,6.54-4.3H205c-.308.81-1.3,1.366-3.3,1.366-2.166,0-3.153-.818-3.382-2.468h9.847ZM201.7,20.46c2.383,0,2.988,1.007,3.262,1.932h-6.516C198.83,21.141,199.847,20.46,201.7,20.46Z" transform="translate(960 6792.174)" fill="#fff"/>
        <path id="패스_690" data-name="패스 690" d="M-165.576.192a3.851,3.851,0,0,1-3.216-1.448,6.87,6.87,0,0,1-1.136-4.3,7.022,7.022,0,0,1,1.136-4.32,3.809,3.809,0,0,1,3.216-1.488,3.868,3.868,0,0,1,2.264.64,4.25,4.25,0,0,1,1.432,1.744l-.784.464a3.226,3.226,0,0,0-1.112-1.448,3,3,0,0,0-1.8-.536,2.938,2.938,0,0,0-2.448,1.12,5.079,5.079,0,0,0-.88,3.2v1.264a4.91,4.91,0,0,0,.88,3.152,2.973,2.973,0,0,0,2.448,1.088A3.017,3.017,0,0,0-163.7-1.24a3.38,3.38,0,0,0,1.12-1.528l.784.464A4.2,4.2,0,0,1-163.256-.48,3.943,3.943,0,0,1-165.576.192Zm8.752,0A3.625,3.625,0,0,1-158.3-.1a3.043,3.043,0,0,1-1.12-.84,3.94,3.94,0,0,1-.72-1.352,5.921,5.921,0,0,1-.256-1.808,5.844,5.844,0,0,1,.256-1.8,3.95,3.95,0,0,1,.72-1.344,3.124,3.124,0,0,1,1.12-.848,3.54,3.54,0,0,1,1.472-.3,3.54,3.54,0,0,1,1.472.3,3.124,3.124,0,0,1,1.12.848,3.95,3.95,0,0,1,.72,1.344,5.844,5.844,0,0,1,.256,1.8,5.921,5.921,0,0,1-.256,1.808,3.94,3.94,0,0,1-.72,1.352,3.043,3.043,0,0,1-1.12.84A3.625,3.625,0,0,1-156.824.192Zm0-.816a2.457,2.457,0,0,0,1.9-.752,3.142,3.142,0,0,0,.7-2.208V-4.608a3.147,3.147,0,0,0-.7-2.2,2.444,2.444,0,0,0-1.9-.76,2.457,2.457,0,0,0-1.9.752,3.142,3.142,0,0,0-.7,2.208v1.024a3.147,3.147,0,0,0,.7,2.2A2.444,2.444,0,0,0-156.824-.624Zm5.728-7.568h.912V-6.88h.048a2.479,2.479,0,0,1,.928-1.1,2.809,2.809,0,0,1,1.568-.408,3,3,0,0,1,2.48,1.12,4.956,4.956,0,0,1,.9,3.168,4.956,4.956,0,0,1-.9,3.168,3,3,0,0,1-2.48,1.12,2.73,2.73,0,0,1-1.552-.408,2.739,2.739,0,0,1-.944-1.1h-.048V3.2h-.912Zm3.248,7.568a2.42,2.42,0,0,0,1.92-.784,3.088,3.088,0,0,0,.688-2.112V-4.672a3.088,3.088,0,0,0-.688-2.112,2.42,2.42,0,0,0-1.92-.784,2.943,2.943,0,0,0-.9.136,2.5,2.5,0,0,0-.744.376,1.79,1.79,0,0,0-.5.576,1.507,1.507,0,0,0-.184.736V-2.5A1.619,1.619,0,0,0-150-1.72a1.844,1.844,0,0,0,.5.592,2.274,2.274,0,0,0,.744.376A3.112,3.112,0,0,0-147.848-.624Zm10.592-7.568h.928L-140.12,2.3a1.469,1.469,0,0,1-.464.7,1.6,1.6,0,0,1-.9.192h-.928V2.4h1.376l.784-2.16-3.04-8.432h.96l2.512,7.216h.064ZM-134.648,0V-8.192h.912V-6.72h.064a2.541,2.541,0,0,1,.816-1.024,2.606,2.606,0,0,1,1.632-.448h.544v.9h-.72a2.917,2.917,0,0,0-1.68.448,1.428,1.428,0,0,0-.656,1.248V0Zm6-10.416a.624.624,0,0,1-.472-.16.579.579,0,0,1-.152-.416v-.16a.579.579,0,0,1,.152-.416.624.624,0,0,1,.472-.16.624.624,0,0,1,.472.16.579.579,0,0,1,.152.416v.16a.579.579,0,0,1-.152.416A.624.624,0,0,1-128.648-10.416Zm-.448,2.224h.912V0h-.912ZM-118.648.96a1.988,1.988,0,0,1-1,1.84,5.855,5.855,0,0,1-2.936.592,5.108,5.108,0,0,1-2.7-.544,1.705,1.705,0,0,1-.832-1.5,1.629,1.629,0,0,1,.368-1.12,2.128,2.128,0,0,1,1.04-.608V-.512a1.114,1.114,0,0,1-.768-1.12,1.118,1.118,0,0,1,.4-.928,2.69,2.69,0,0,1,.992-.48V-3.1a2.467,2.467,0,0,1-1.12-.96,2.84,2.84,0,0,1-.4-1.536,2.992,2.992,0,0,1,.208-1.136,2.462,2.462,0,0,1,.6-.88,2.707,2.707,0,0,1,.944-.568,3.571,3.571,0,0,1,1.224-.2,3.279,3.279,0,0,1,1.648.4v-.4a.966.966,0,0,1,.176-.6.677.677,0,0,1,.576-.232h1.408v.8h-1.664v.784a2.479,2.479,0,0,1,.64.888,2.862,2.862,0,0,1,.224,1.144,2.894,2.894,0,0,1-.216,1.136,2.636,2.636,0,0,1-.608.888,2.646,2.646,0,0,1-.944.576,3.571,3.571,0,0,1-1.224.2,2.838,2.838,0,0,1-.432-.032l-.416-.064a2.694,2.694,0,0,0-.872.392.778.778,0,0,0-.344.664q0,.736,1.312.736h1.9a3.36,3.36,0,0,1,2.152.552A1.861,1.861,0,0,1-118.648.96Zm-.88.064a1.141,1.141,0,0,0-.424-.936,2.47,2.47,0,0,0-1.512-.344h-2.656a1.837,1.837,0,0,0-.832.528,1.3,1.3,0,0,0-.3.88,1.311,1.311,0,0,0,.528,1.064,2.525,2.525,0,0,0,1.6.424h1.024a3.827,3.827,0,0,0,1.888-.392A1.311,1.311,0,0,0-119.528,1.024Zm-3.088-4.56a2.163,2.163,0,0,0,1.48-.472,1.686,1.686,0,0,0,.536-1.336v-.512a1.666,1.666,0,0,0-.536-1.32,2.163,2.163,0,0,0-1.48-.472,2.157,2.157,0,0,0-1.488.472,1.679,1.679,0,0,0-.528,1.32v.512a1.686,1.686,0,0,0,.536,1.336A2.163,2.163,0,0,0-122.616-3.536Zm5.552-8.3h.912V-6.9h.048a2.532,2.532,0,0,1,.848-1.064,2.593,2.593,0,0,1,1.568-.424,2.6,2.6,0,0,1,2.04.808,3.339,3.339,0,0,1,.728,2.312V0h-.912V-5.1a2.744,2.744,0,0,0-.536-1.856,1.969,1.969,0,0,0-1.56-.608,3.071,3.071,0,0,0-.832.112,2.249,2.249,0,0,0-.712.336,1.643,1.643,0,0,0-.5.568,1.654,1.654,0,0,0-.184.792V0h-.912ZM-106.808,0a.984.984,0,0,1-.752-.272,1.03,1.03,0,0,1-.256-.736V-7.392h-1.424v-.8h.928a.6.6,0,0,0,.456-.136.749.749,0,0,0,.12-.488V-10.48h.832v2.288h1.856v.8H-106.9V-.8h1.728V0Zm14.7-3.84a2.942,2.942,0,0,1-1.392.3,2.117,2.117,0,0,1-2.144-2.32,2.146,2.146,0,0,1,2.192-2.336,2.924,2.924,0,0,1,1.3.288l.256-.848a3.335,3.335,0,0,0-1.552-.336,3.145,3.145,0,0,0-3.312,3.3A2.923,2.923,0,0,0-93.7-2.64a4.372,4.372,0,0,0,1.792-.352Zm3.824-2.048a5.729,5.729,0,0,1-5.7,5.744,5.726,5.726,0,0,1-5.68-5.744,5.722,5.722,0,0,1,5.68-5.728A5.726,5.726,0,0,1-88.28-5.888Zm.832,0a6.545,6.545,0,0,0-6.528-6.528A6.545,6.545,0,0,0-100.5-5.888,6.525,6.525,0,0,0-93.976.64,6.525,6.525,0,0,0-87.448-5.888Zm8.912.64h-6.128V0h-.96V-11.168h.96V-6.1h6.128v-5.072h.96V0h-.96Zm6.784,5.44A3.625,3.625,0,0,1-73.224-.1a3.043,3.043,0,0,1-1.12-.84,3.94,3.94,0,0,1-.72-1.352A5.922,5.922,0,0,1-75.32-4.1a5.844,5.844,0,0,1,.256-1.8,3.95,3.95,0,0,1,.72-1.344,3.124,3.124,0,0,1,1.12-.848,3.54,3.54,0,0,1,1.472-.3,3.54,3.54,0,0,1,1.472.3,3.124,3.124,0,0,1,1.12.848A3.95,3.95,0,0,1-68.44-5.9a5.844,5.844,0,0,1,.256,1.8,5.921,5.921,0,0,1-.256,1.808,3.94,3.94,0,0,1-.72,1.352,3.043,3.043,0,0,1-1.12.84A3.625,3.625,0,0,1-71.752.192Zm0-.816a2.457,2.457,0,0,0,1.9-.752,3.142,3.142,0,0,0,.7-2.208V-4.608a3.147,3.147,0,0,0-.7-2.2,2.444,2.444,0,0,0-1.9-.76,2.457,2.457,0,0,0-1.9.752,3.142,3.142,0,0,0-.7,2.208v1.024a3.147,3.147,0,0,0,.7,2.2A2.444,2.444,0,0,0-71.752-.624ZM-66.024,0V-8.192h.912v1.3h.048a2.532,2.532,0,0,1,.848-1.064,2.593,2.593,0,0,1,1.568-.424,2.6,2.6,0,0,1,2.04.808,3.339,3.339,0,0,1,.728,2.312V0h-.912V-5.1a2.744,2.744,0,0,0-.536-1.856,1.969,1.969,0,0,0-1.56-.608,3.071,3.071,0,0,0-.832.112,2.249,2.249,0,0,0-.712.336,1.643,1.643,0,0,0-.5.568,1.654,1.654,0,0,0-.184.792V0Zm15.568.96a1.988,1.988,0,0,1-1,1.84,5.855,5.855,0,0,1-2.936.592,5.108,5.108,0,0,1-2.7-.544,1.705,1.705,0,0,1-.832-1.5A1.629,1.629,0,0,1-57.56.224a2.128,2.128,0,0,1,1.04-.608V-.512a1.114,1.114,0,0,1-.768-1.12,1.118,1.118,0,0,1,.4-.928,2.69,2.69,0,0,1,.992-.48V-3.1a2.467,2.467,0,0,1-1.12-.96,2.84,2.84,0,0,1-.4-1.536,2.992,2.992,0,0,1,.208-1.136,2.462,2.462,0,0,1,.6-.88,2.707,2.707,0,0,1,.944-.568,3.571,3.571,0,0,1,1.224-.2,3.279,3.279,0,0,1,1.648.4v-.4a.966.966,0,0,1,.176-.6.677.677,0,0,1,.576-.232h1.408v.8H-52.3v.784a2.479,2.479,0,0,1,.64.888A2.862,2.862,0,0,1-51.432-5.6a2.9,2.9,0,0,1-.216,1.136,2.636,2.636,0,0,1-.608.888A2.646,2.646,0,0,1-53.2-3a3.571,3.571,0,0,1-1.224.2,2.838,2.838,0,0,1-.432-.032l-.416-.064a2.694,2.694,0,0,0-.872.392.778.778,0,0,0-.344.664q0,.736,1.312.736h1.9a3.36,3.36,0,0,1,2.152.552A1.861,1.861,0,0,1-50.456.96Zm-.88.064A1.141,1.141,0,0,0-51.76.088a2.47,2.47,0,0,0-1.512-.344h-2.656a1.837,1.837,0,0,0-.832.528,1.3,1.3,0,0,0-.3.88,1.311,1.311,0,0,0,.528,1.064,2.526,2.526,0,0,0,1.6.424h1.024a3.827,3.827,0,0,0,1.888-.392A1.311,1.311,0,0,0-51.336,1.024Zm-3.088-4.56a2.163,2.163,0,0,0,1.48-.472,1.686,1.686,0,0,0,.536-1.336v-.512a1.666,1.666,0,0,0-.536-1.32,2.163,2.163,0,0,0-1.48-.472,2.157,2.157,0,0,0-1.488.472,1.679,1.679,0,0,0-.528,1.32v.512A1.686,1.686,0,0,0-55.9-4.008,2.163,2.163,0,0,0-54.424-3.536Zm6-6.88a.624.624,0,0,1-.472-.16.579.579,0,0,1-.152-.416v-.16a.579.579,0,0,1,.152-.416.624.624,0,0,1,.472-.16.624.624,0,0,1,.472.16.579.579,0,0,1,.152.416v.16a.579.579,0,0,1-.152.416A.624.624,0,0,1-48.424-10.416Zm-.448,2.224h.912V0h-.912Zm3.728-3.648h.912v7.824h.048l1.28-1.36,2.72-2.816h1.12L-42.28-4.864-38.712,0h-1.12l-3.1-4.288-1.3,1.312V0h-.912Zm12.624.672v6.9a7.852,7.852,0,0,0,.144,1.608,2.764,2.764,0,0,0,.48,1.12,2.008,2.008,0,0,0,.9.656,3.841,3.841,0,0,0,1.376.216,3.775,3.775,0,0,0,1.368-.216,2.068,2.068,0,0,0,.9-.656,2.7,2.7,0,0,0,.488-1.12,7.852,7.852,0,0,0,.144-1.608v-6.9h.96V-4.48a9.3,9.3,0,0,1-.208,2.112A3.6,3.6,0,0,1-26.64-.92a2.681,2.681,0,0,1-1.2.84,5.317,5.317,0,0,1-1.816.272A5.247,5.247,0,0,1-31.464-.08a2.632,2.632,0,0,1-1.184-.84,3.512,3.512,0,0,1-.64-1.448A10.046,10.046,0,0,1-33.48-4.48v-6.688ZM-22.952,0V-8.192h.912v1.3h.048a2.532,2.532,0,0,1,.848-1.064,2.593,2.593,0,0,1,1.568-.424,2.6,2.6,0,0,1,2.04.808,3.339,3.339,0,0,1,.728,2.312V0h-.912V-5.1a2.744,2.744,0,0,0-.536-1.856,1.969,1.969,0,0,0-1.56-.608,3.071,3.071,0,0,0-.832.112,2.249,2.249,0,0,0-.712.336,1.643,1.643,0,0,0-.5.568,1.653,1.653,0,0,0-.184.792V0Zm9.3-10.416a.624.624,0,0,1-.472-.16.579.579,0,0,1-.152-.416v-.16a.579.579,0,0,1,.152-.416.624.624,0,0,1,.472-.16.624.624,0,0,1,.472.16.579.579,0,0,1,.152.416v.16a.579.579,0,0,1-.152.416A.624.624,0,0,1-13.656-10.416ZM-14.1-8.192h.912V0H-14.1Zm2.576,0h.96L-8.056-.976h.064l2.5-7.216h.928L-7.528,0h-1.04ZM-.1.192A3.682,3.682,0,0,1-1.584-.1,3.1,3.1,0,0,1-2.72-.936a3.767,3.767,0,0,1-.72-1.352A6.1,6.1,0,0,1-3.688-4.1,6.019,6.019,0,0,1-3.44-5.9,3.775,3.775,0,0,1-2.72-7.24a3.2,3.2,0,0,1,1.128-.848,3.54,3.54,0,0,1,1.472-.3,3.352,3.352,0,0,1,1.424.3,3.133,3.133,0,0,1,1.088.824,3.8,3.8,0,0,1,.7,1.272,5.161,5.161,0,0,1,.248,1.64v.432H-2.728v.4a3.6,3.6,0,0,0,.184,1.176,2.649,2.649,0,0,0,.528.92,2.4,2.4,0,0,0,.84.6,2.778,2.778,0,0,0,1.12.216,2.483,2.483,0,0,0,2.48-1.648l.672.448A3.192,3.192,0,0,1,1.888-.352,3.534,3.534,0,0,1-.1.192ZM-.12-7.616A2.584,2.584,0,0,0-1.192-7.4a2.433,2.433,0,0,0-.824.6,2.649,2.649,0,0,0-.528.92A3.6,3.6,0,0,0-2.728-4.7v.08H2.344v-.128a3.751,3.751,0,0,0-.176-1.176,2.52,2.52,0,0,0-.5-.9A2.337,2.337,0,0,0,.88-7.408,2.381,2.381,0,0,0-.12-7.616ZM5.5,0V-8.192h.912V-6.72h.064a2.541,2.541,0,0,1,.816-1.024A2.606,2.606,0,0,1,8.92-8.192h.544v.9h-.72a2.917,2.917,0,0,0-1.68.448A1.428,1.428,0,0,0,6.408-5.6V0Zm7.872.192a3.889,3.889,0,0,1-1.832-.4,3.854,3.854,0,0,1-1.32-1.168l.672-.528a3.452,3.452,0,0,0,1.12.992,3.015,3.015,0,0,0,1.424.32,2.319,2.319,0,0,0,1.456-.4A1.375,1.375,0,0,0,15.4-2.144a1.362,1.362,0,0,0-.392-1.032,2.317,2.317,0,0,0-1.288-.5l-.672-.112a5.548,5.548,0,0,1-1.024-.24,2.507,2.507,0,0,1-.792-.432,1.9,1.9,0,0,1-.512-.664,2.229,2.229,0,0,1-.184-.952,2.227,2.227,0,0,1,.216-1.008,2.084,2.084,0,0,1,.584-.72,2.515,2.515,0,0,1,.88-.432,4.063,4.063,0,0,1,1.1-.144A3.536,3.536,0,0,1,15-8.032a3.727,3.727,0,0,1,1.12.912l-.608.56a3.432,3.432,0,0,0-.856-.712A2.619,2.619,0,0,0,13.272-7.6a2.163,2.163,0,0,0-1.368.384,1.3,1.3,0,0,0-.488,1.088,1.2,1.2,0,0,0,.44,1.04,3.127,3.127,0,0,0,1.32.464l.656.1a3.472,3.472,0,0,1,1.848.744,1.993,1.993,0,0,1,.6,1.544A2.194,2.194,0,0,1,15.5-.448,3.261,3.261,0,0,1,13.368.192Zm5.6-10.608a.624.624,0,0,1-.472-.16.579.579,0,0,1-.152-.416v-.16a.579.579,0,0,1,.152-.416.624.624,0,0,1,.472-.16.624.624,0,0,1,.472.16.579.579,0,0,1,.152.416v.16a.579.579,0,0,1-.152.416A.624.624,0,0,1,18.968-10.416ZM18.52-8.192h.912V0H18.52ZM23.656,0A.984.984,0,0,1,22.9-.272a1.03,1.03,0,0,1-.256-.736V-7.392H21.224v-.8h.928a.6.6,0,0,0,.456-.136.749.749,0,0,0,.12-.488V-10.48h.832v2.288h1.856v.8H23.56V-.8h1.728V0Zm8.752-8.192h.928L29.544,2.3a1.469,1.469,0,0,1-.464.7,1.6,1.6,0,0,1-.9.192h-.928V2.4h1.376L29.416.24l-3.04-8.432h.96L29.848-.976h.064ZM45.72,0,44.5-3.472H39.752L38.536,0h-.96l3.952-11.168H42.76L46.728,0ZM42.152-10.256h-.064L39.992-4.3h4.256ZM49.48,0a.984.984,0,0,1-.752-.272,1.008,1.008,0,0,1-.256-.72V-11.84h.912V-.8h1.264V0Zm3.952,0a.984.984,0,0,1-.752-.272,1.008,1.008,0,0,1-.256-.72V-11.84h.912V-.8H54.6V0ZM61.16,0H60.2V-11.168h4.384a2.913,2.913,0,0,1,2.216.816,3.188,3.188,0,0,1,.776,2.288,3.282,3.282,0,0,1-.632,2.1,2.673,2.673,0,0,1-1.832.96L67.864,0H66.792L64.12-4.944H61.16Zm3.424-5.76A1.913,1.913,0,0,0,66.048-6.3a1.917,1.917,0,0,0,.5-1.368v-.768a1.9,1.9,0,0,0-.5-1.352,1.913,1.913,0,0,0-1.464-.536H61.16v4.56Zm5.984-4.656a.624.624,0,0,1-.472-.16.579.579,0,0,1-.152-.416v-.16a.579.579,0,0,1,.152-.416.624.624,0,0,1,.472-.16.624.624,0,0,1,.472.16.579.579,0,0,1,.152.416v.16a.579.579,0,0,1-.152.416A.624.624,0,0,1,70.568-10.416ZM70.12-8.192h.912V0H70.12ZM80.568.96a1.988,1.988,0,0,1-1,1.84,5.855,5.855,0,0,1-2.936.592,5.108,5.108,0,0,1-2.7-.544,1.705,1.705,0,0,1-.832-1.5,1.629,1.629,0,0,1,.368-1.12A2.128,2.128,0,0,1,74.5-.384V-.512a1.114,1.114,0,0,1-.768-1.12,1.118,1.118,0,0,1,.4-.928,2.69,2.69,0,0,1,.992-.48V-3.1a2.467,2.467,0,0,1-1.12-.96,2.84,2.84,0,0,1-.4-1.536,2.992,2.992,0,0,1,.208-1.136,2.462,2.462,0,0,1,.6-.88,2.707,2.707,0,0,1,.944-.568,3.571,3.571,0,0,1,1.224-.2,3.279,3.279,0,0,1,1.648.4v-.4a.966.966,0,0,1,.176-.6.677.677,0,0,1,.576-.232h1.408v.8H78.728v.784a2.479,2.479,0,0,1,.64.888A2.862,2.862,0,0,1,79.592-5.6a2.894,2.894,0,0,1-.216,1.136,2.636,2.636,0,0,1-.608.888A2.646,2.646,0,0,1,77.824-3a3.571,3.571,0,0,1-1.224.2,2.838,2.838,0,0,1-.432-.032L75.752-2.9a2.694,2.694,0,0,0-.872.392.778.778,0,0,0-.344.664q0,.736,1.312.736h1.9A3.36,3.36,0,0,1,79.9-.552,1.861,1.861,0,0,1,80.568.96Zm-.88.064a1.141,1.141,0,0,0-.424-.936,2.47,2.47,0,0,0-1.512-.344H75.1a1.837,1.837,0,0,0-.832.528,1.3,1.3,0,0,0-.3.88,1.311,1.311,0,0,0,.528,1.064,2.525,2.525,0,0,0,1.6.424h1.024A3.827,3.827,0,0,0,79,2.248,1.311,1.311,0,0,0,79.688,1.024ZM76.6-3.536a2.163,2.163,0,0,0,1.48-.472,1.686,1.686,0,0,0,.536-1.336v-.512a1.666,1.666,0,0,0-.536-1.32,2.163,2.163,0,0,0-1.48-.472,2.157,2.157,0,0,0-1.488.472,1.679,1.679,0,0,0-.528,1.32v.512a1.686,1.686,0,0,0,.536,1.336A2.163,2.163,0,0,0,76.6-3.536Zm5.552-8.3h.912V-6.9h.048A2.532,2.532,0,0,1,83.96-7.96a2.593,2.593,0,0,1,1.568-.424,2.6,2.6,0,0,1,2.04.808A3.339,3.339,0,0,1,88.3-5.264V0h-.912V-5.1a2.744,2.744,0,0,0-.536-1.856,1.969,1.969,0,0,0-1.56-.608,3.071,3.071,0,0,0-.832.112,2.249,2.249,0,0,0-.712.336,1.643,1.643,0,0,0-.5.568,1.654,1.654,0,0,0-.184.792V0h-.912ZM92.408,0a.984.984,0,0,1-.752-.272,1.03,1.03,0,0,1-.256-.736V-7.392H89.976v-.8H90.9a.6.6,0,0,0,.456-.136.749.749,0,0,0,.12-.488V-10.48h.832v2.288h1.856v.8H92.312V-.8H94.04V0ZM98.52.192a3.889,3.889,0,0,1-1.832-.4,3.854,3.854,0,0,1-1.32-1.168L96.04-1.9a3.452,3.452,0,0,0,1.12.992,3.015,3.015,0,0,0,1.424.32,2.319,2.319,0,0,0,1.456-.4,1.375,1.375,0,0,0,.512-1.152,1.363,1.363,0,0,0-.392-1.032,2.317,2.317,0,0,0-1.288-.5L98.2-3.792a5.548,5.548,0,0,1-1.024-.24,2.507,2.507,0,0,1-.792-.432,1.9,1.9,0,0,1-.512-.664,2.229,2.229,0,0,1-.184-.952A2.227,2.227,0,0,1,95.9-7.088a2.084,2.084,0,0,1,.584-.72,2.515,2.515,0,0,1,.88-.432,4.063,4.063,0,0,1,1.1-.144,3.536,3.536,0,0,1,1.68.352,3.727,3.727,0,0,1,1.12.912l-.608.56a3.432,3.432,0,0,0-.856-.712A2.619,2.619,0,0,0,98.424-7.6a2.163,2.163,0,0,0-1.368.384,1.3,1.3,0,0,0-.488,1.088,1.2,1.2,0,0,0,.44,1.04,3.127,3.127,0,0,0,1.32.464l.656.1a3.472,3.472,0,0,1,1.848.744,1.993,1.993,0,0,1,.6,1.544,2.194,2.194,0,0,1-.776,1.792A3.261,3.261,0,0,1,98.52.192ZM108.344,0h-.96V-11.168h4.384a2.913,2.913,0,0,1,2.216.816,3.188,3.188,0,0,1,.776,2.288,3.282,3.282,0,0,1-.632,2.1,2.673,2.673,0,0,1-1.832.96L115.048,0h-1.072L111.3-4.944h-2.96Zm3.424-5.76a1.913,1.913,0,0,0,1.464-.536,1.917,1.917,0,0,0,.5-1.368v-.768a1.9,1.9,0,0,0-.5-1.352,1.913,1.913,0,0,0-1.464-.536h-3.424v4.56ZM119.992.192a3.682,3.682,0,0,1-1.48-.288,3.1,3.1,0,0,1-1.136-.84,3.767,3.767,0,0,1-.72-1.352,6.1,6.1,0,0,1-.248-1.808,6.019,6.019,0,0,1,.248-1.8,3.775,3.775,0,0,1,.72-1.344,3.2,3.2,0,0,1,1.128-.848,3.54,3.54,0,0,1,1.472-.3,3.352,3.352,0,0,1,1.424.3,3.133,3.133,0,0,1,1.088.824,3.8,3.8,0,0,1,.7,1.272,5.161,5.161,0,0,1,.248,1.64v.432h-6.064v.4a3.6,3.6,0,0,0,.184,1.176,2.649,2.649,0,0,0,.528.92,2.4,2.4,0,0,0,.84.6,2.778,2.778,0,0,0,1.12.216,2.483,2.483,0,0,0,2.48-1.648l.672.448a3.192,3.192,0,0,1-1.208,1.456A3.534,3.534,0,0,1,119.992.192Zm-.016-7.808A2.584,2.584,0,0,0,118.9-7.4a2.433,2.433,0,0,0-.824.6,2.649,2.649,0,0,0-.528.92,3.6,3.6,0,0,0-.184,1.176v.08h5.072v-.128a3.752,3.752,0,0,0-.176-1.176,2.52,2.52,0,0,0-.5-.9,2.337,2.337,0,0,0-.784-.576A2.381,2.381,0,0,0,119.976-7.616ZM127.912.192a3.889,3.889,0,0,1-1.832-.4,3.854,3.854,0,0,1-1.32-1.168l.672-.528a3.452,3.452,0,0,0,1.12.992,3.015,3.015,0,0,0,1.424.32,2.319,2.319,0,0,0,1.456-.4,1.375,1.375,0,0,0,.512-1.152,1.362,1.362,0,0,0-.392-1.032,2.317,2.317,0,0,0-1.288-.5l-.672-.112a5.548,5.548,0,0,1-1.024-.24,2.507,2.507,0,0,1-.792-.432,1.9,1.9,0,0,1-.512-.664,2.229,2.229,0,0,1-.184-.952,2.227,2.227,0,0,1,.216-1.008,2.084,2.084,0,0,1,.584-.72,2.515,2.515,0,0,1,.88-.432,4.063,4.063,0,0,1,1.1-.144,3.536,3.536,0,0,1,1.68.352,3.727,3.727,0,0,1,1.12.912l-.608.56a3.432,3.432,0,0,0-.856-.712,2.619,2.619,0,0,0-1.384-.328,2.163,2.163,0,0,0-1.368.384,1.3,1.3,0,0,0-.488,1.088,1.2,1.2,0,0,0,.44,1.04,3.127,3.127,0,0,0,1.32.464l.656.1a3.472,3.472,0,0,1,1.848.744,1.993,1.993,0,0,1,.6,1.544,2.194,2.194,0,0,1-.776,1.792A3.261,3.261,0,0,1,127.912.192Zm8.08,0a3.682,3.682,0,0,1-1.48-.288,3.1,3.1,0,0,1-1.136-.84,3.767,3.767,0,0,1-.72-1.352,6.1,6.1,0,0,1-.248-1.808,6.019,6.019,0,0,1,.248-1.8,3.774,3.774,0,0,1,.72-1.344,3.2,3.2,0,0,1,1.128-.848,3.54,3.54,0,0,1,1.472-.3,3.352,3.352,0,0,1,1.424.3,3.133,3.133,0,0,1,1.088.824,3.8,3.8,0,0,1,.7,1.272,5.162,5.162,0,0,1,.248,1.64v.432h-6.064v.4a3.6,3.6,0,0,0,.184,1.176,2.649,2.649,0,0,0,.528.92,2.4,2.4,0,0,0,.84.6,2.779,2.779,0,0,0,1.12.216,2.483,2.483,0,0,0,2.48-1.648l.672.448a3.192,3.192,0,0,1-1.208,1.456A3.534,3.534,0,0,1,135.992.192Zm-.016-7.808A2.583,2.583,0,0,0,134.9-7.4a2.434,2.434,0,0,0-.824.6,2.649,2.649,0,0,0-.528.92,3.6,3.6,0,0,0-.184,1.176v.08h5.072v-.128a3.752,3.752,0,0,0-.176-1.176,2.52,2.52,0,0,0-.5-.9,2.337,2.337,0,0,0-.784-.576A2.381,2.381,0,0,0,135.976-7.616ZM141.592,0V-8.192h.912V-6.72h.064a2.541,2.541,0,0,1,.816-1.024,2.606,2.606,0,0,1,1.632-.448h.544v.9h-.72a2.917,2.917,0,0,0-1.68.448A1.428,1.428,0,0,0,142.5-5.6V0Zm4.624-8.192h.96l2.512,7.216h.064l2.5-7.216h.928L150.216,0h-1.04ZM157.64.192A3.682,3.682,0,0,1,156.16-.1a3.1,3.1,0,0,1-1.136-.84,3.767,3.767,0,0,1-.72-1.352,6.1,6.1,0,0,1-.248-1.808,6.019,6.019,0,0,1,.248-1.8,3.774,3.774,0,0,1,.72-1.344,3.2,3.2,0,0,1,1.128-.848,3.54,3.54,0,0,1,1.472-.3,3.352,3.352,0,0,1,1.424.3,3.133,3.133,0,0,1,1.088.824,3.8,3.8,0,0,1,.7,1.272,5.162,5.162,0,0,1,.248,1.64v.432h-6.064v.4a3.6,3.6,0,0,0,.184,1.176,2.649,2.649,0,0,0,.528.92,2.4,2.4,0,0,0,.84.6,2.779,2.779,0,0,0,1.12.216,2.483,2.483,0,0,0,2.48-1.648l.672.448a3.192,3.192,0,0,1-1.208,1.456A3.534,3.534,0,0,1,157.64.192Zm-.016-7.808a2.583,2.583,0,0,0-1.072.216,2.434,2.434,0,0,0-.824.6,2.649,2.649,0,0,0-.528.92,3.6,3.6,0,0,0-.184,1.176v.08h5.072v-.128a3.752,3.752,0,0,0-.176-1.176,2.52,2.52,0,0,0-.5-.9,2.337,2.337,0,0,0-.784-.576A2.381,2.381,0,0,0,157.624-7.616Zm10.912,6.3h-.048a2.6,2.6,0,0,1-.936,1.1,2.77,2.77,0,0,1-1.56.408,3,3,0,0,1-2.48-1.12,4.956,4.956,0,0,1-.9-3.168,4.956,4.956,0,0,1,.9-3.168,3,3,0,0,1,2.48-1.12,2.809,2.809,0,0,1,1.568.408,2.479,2.479,0,0,1,.928,1.1h.048v-4.96h.912V0h-.912ZM166.2-.624a3.113,3.113,0,0,0,.9-.128,2.274,2.274,0,0,0,.744-.376,1.844,1.844,0,0,0,.5-.592,1.619,1.619,0,0,0,.184-.776V-5.744a1.507,1.507,0,0,0-.184-.736,1.79,1.79,0,0,0-.5-.576,2.5,2.5,0,0,0-.744-.376,2.943,2.943,0,0,0-.9-.136,2.42,2.42,0,0,0-1.92.784,3.088,3.088,0,0,0-.688,2.112V-3.52a3.088,3.088,0,0,0,.688,2.112A2.42,2.42,0,0,0,166.2-.624Z" transform="translate(960 6855.174)" fill="#fff"/>
        <g id="그룹_612" data-name="그룹 612" transform="translate(825 6660)">
          <g id="그룹_268" data-name="그룹 268" transform="translate(161.069 40)">
            <path id="path34" d="M-737,263.175l6.364,2.451,4.3-9.925,4.428,9.925,6.242-2.451-10.67-19.913L-737,263.175" transform="translate(737 -217.278)" fill="#fff"/>
            <path id="path36" d="M-467.191,258.117h-10.146v7.091h10.146v6.748h-16.986V251.368h16.986v6.749" transform="translate(511.239 -224.497)" fill="#fff"/>
            <path id="path22" d="M-718.917,17.191a3.015,3.015,0,1,0,0-6.024c-4.032,0-3.676,6.024,0,6.024m-5.871-17.2h11.8v4.27h-11.8ZM-710.5,10.464c2.016,5.265-.829,12.4-8.42,12.4s-10.436-7.136-8.42-12.4h-1.3V4.909h19.508v5.555H-710.5" transform="translate(729.556 0.005)" fill="#fff"/>
            <path id="path24" d="M-486.07,12.935c-5.439,0-5.267,8.132,0,8.132s5.437-8.132,0-8.132m0-5.873c13.454,0,13.454,19.934,0,19.934s-13.454-19.934,0-19.934" transform="translate(521.911 -6.288)" fill="#fff"/>
          </g>
          <line id="선_112" data-name="선 112" y2="43.513" transform="translate(144.148 43.022)" fill="none" stroke="#b6babf" stroke-width="0.6"/>
          <g id="그룹_611" data-name="그룹 611" transform="translate(68 40)">
            <g id="그룹_611-2" data-name="그룹 611" transform="translate(0 0)" clip-path="url(#clip-path)">
              <path id="패스_687" data-name="패스 687" d="M60.911,24.173A24.174,24.174,0,1,1,36.736,0,24.175,24.175,0,0,1,60.911,24.173" transform="translate(2.549 0)" fill="#2430c7"/>
              <path id="패스_688" data-name="패스 688" d="M45.065,12.515l-.025-1.162L31.357,8.193l-.52,4.723L30.346,8.1,28.6,19.792l-.405-4.686L25.856,30.013l-.309-4.5-1.787,9.654-.384.04-.384.04-1.963-9.8-.226,4.7L18.181,13.615l-.318,5.061L15.889,4.537l-.4,5.322-.613-5.765L1.224.244V2.625L0,2.412V45.658l.227-.045v1.91L8.1,45.837l0-1.518.8-.158-.008-3,.552-.093-.09-27.6.286.043L10.89,18.83l1.953,8.993.4-5.413,2.077,14.6.3-4.012,1.779,10.6,6.041-1.162,6.039-1.123,1.611-8.555.356,2.43,1.866-10.213.459,2.593,1.818-6.706L36.77,17.2l.287.036.326,20.409.552-.082.023,1.312.8-.131.019,1.169,7.854-1.348,0-.233-.019-.858.226-.034-.536-24.585Z" transform="translate(0 0.05)" fill="#fff"/>
            </g>
          </g>
        </g>
      </g>
    </g>
  </g>
</svg>
